<svg width="26" height="26" viewBox="0 0 26 26" fill="none" xmlns="http://www.w3.org/2000/svg">
<path fill-rule="evenodd" clip-rule="evenodd" d="M24.1625 4.60755L23.5 2.64505C22.9685 1.14173 21.5445 0.138901 19.95 0.145048H6.05002C4.45552 0.138901 3.03151 1.14173 2.50002 2.64505L1.83752 4.60755C0.993152 5.27576 0.500517 6.29326 0.500016 7.37005V8.20755C0.495372 9.92558 1.5052 11.4844 3.07502 12.1825C3.02507 12.31 2.99962 12.4457 3.00002 12.5825V21.3325C3.00002 23.4036 4.67895 25.0825 6.75002 25.0825H19.25C21.3211 25.0825 23 23.4036 23 21.3325V12.5825C23.0004 12.4457 22.975 12.31 22.925 12.1825C24.4948 11.4844 25.5047 9.92558 25.5 8.20755V7.37005C25.4995 6.29326 25.0069 5.27576 24.1625 4.60755ZM4.8625 3.43252C5.04124 2.9008 5.55231 2.55328 6.1125 2.58252H19.95C20.5102 2.55328 21.0213 2.9008 21.2 3.43252L21.325 3.83252H4.7375L4.8625 3.43252ZM15.5 8.20752V6.33252H10.5V8.20752C10.5 9.24305 11.3395 10.0825 12.375 10.0825H13.625C14.6605 10.0825 15.5 9.24305 15.5 8.20752ZM3 8.20752V7.37002C3 6.79702 3.4645 6.33252 4.0375 6.33252H8V8.20752C8 9.24305 7.16053 10.0825 6.125 10.0825H4.875C3.83946 10.0825 3 9.24305 3 8.20752ZM11.75 18.8325V22.5825H14.25V18.8325C14.25 18.1422 13.6904 17.5825 13 17.5825C12.3096 17.5825 11.75 18.1422 11.75 18.8325ZM20.5 21.3325C20.5 22.0229 19.9404 22.5825 19.25 22.5825H16.75V18.8325C16.75 16.7614 15.0711 15.0825 13 15.0825C10.9289 15.0825 9.25 16.7614 9.25 18.8325V22.5825H6.75C6.05964 22.5825 5.5 22.0229 5.5 21.3325V12.5825H6.125C7.30429 12.5881 8.4341 12.109 9.25 11.2575C10.0659 12.109 11.1957 12.5881 12.375 12.5825H13.625C14.8043 12.5881 15.9341 12.109 16.75 11.2575C17.5659 12.109 18.6957 12.5881 19.875 12.5825H20.5V21.3325ZM21.125 10.0825C22.1605 10.0825 23 9.24305 23 8.20752V7.37002C23 6.79702 22.5355 6.33252 21.9625 6.33252H18V8.20752C18 9.24305 18.8395 10.0825 19.875 10.0825H21.125Z" fill="#231F20"/>
</svg>
