<svg width="26" height="26" viewBox="0 0 26 26" fill="none" xmlns="http://www.w3.org/2000/svg">
<path fill-rule="evenodd" clip-rule="evenodd" d="M17.575 15.3949L25.2875 23.1075H25.325C25.684 23.4635 25.7931 24.0006 25.6016 24.4685C25.4101 24.9364 24.9556 25.2428 24.45 25.245C24.116 25.2436 23.7964 25.1085 23.5625 24.8699L15.85 17.1575L11.3625 21.645C10.875 22.1296 10.0876 22.1296 9.60003 21.645L7.30003 19.3449C6.5925 18.6363 6.37607 17.5739 6.75003 16.645L1.85003 11.6449C1.14395 10.9413 0.74707 9.98552 0.74707 8.9887C0.74707 7.99188 1.14395 7.03608 1.85003 6.33245L6.85003 1.33245C7.55366 0.62637 8.50946 0.229492 9.50628 0.229492C10.5031 0.229492 11.4589 0.62637 12.1625 1.33245L17.0625 6.33245C17.9841 5.94892 19.0456 6.1504 19.7625 6.84495L22.0625 9.14495C22.5472 9.6325 22.5472 10.4199 22.0625 10.9074L17.575 15.3949ZM9.03753 17.5825L10.5 18.995L19.4125 10.0825L18 8.61995L17.8125 8.83245C17.5778 9.06909 17.2583 9.2022 16.925 9.2022C16.5917 9.2022 16.2722 9.06909 16.0375 8.83245L10.3375 3.20745C9.84998 2.7228 9.06257 2.7228 8.57503 3.20745L3.57503 8.20745C3.09037 8.695 3.09037 9.4824 3.57503 9.96995L9.25003 15.62C9.48667 15.8547 9.61977 16.1742 9.61977 16.5075C9.61977 16.8407 9.48667 17.1602 9.25003 17.395L9.03753 17.5825Z" fill="#231F20"/>
</svg>
