<svg width="27" height="26" viewBox="0 0 27 26" fill="none" xmlns="http://www.w3.org/2000/svg">
<path fill-rule="evenodd" clip-rule="evenodd" d="M20.425 18.6199C21.119 17.9574 22.0405 17.5861 23 17.5824C25.0711 17.5824 26.75 19.2613 26.75 21.3324C26.75 23.4035 25.0711 25.0824 23 25.0824C20.9289 25.0824 19.25 23.4035 19.25 21.3324C19.2377 21.1701 19.2377 21.0072 19.25 20.8449L7.5 14.4199C6.8393 15.5954 5.59839 16.3256 4.25 16.3324C2.17893 16.3324 0.5 14.6535 0.5 12.5824C0.5 10.5113 2.17893 8.83241 4.25 8.83241C5.59839 8.83923 6.8393 9.56946 7.5 10.7449L19.25 4.31991C19.2377 4.15764 19.2377 3.99467 19.25 3.83241C19.2435 2.05215 20.4896 0.512703 22.2321 0.148187C23.9747 -0.216329 25.7334 0.694569 26.441 2.32815C27.1486 3.96174 26.6102 5.86771 25.1524 6.88952C23.6945 7.91134 21.7192 7.76735 20.425 6.54491L9.3625 12.5824L20.425 18.6199ZM24.25 3.83241C24.25 3.14205 23.6904 2.58241 23 2.58241C22.3096 2.58241 21.75 3.14205 21.75 3.83241C21.75 4.52276 22.3096 5.08241 23 5.08241C23.6904 5.08241 24.25 4.52276 24.25 3.83241ZM4.25 13.8324C3.55964 13.8324 3 13.2728 3 12.5824C3 11.8921 3.55964 11.3324 4.25 11.3324C4.94036 11.3324 5.5 11.8921 5.5 12.5824C5.5 13.2728 4.94036 13.8324 4.25 13.8324ZM21.75 21.3324C21.75 22.0228 22.3096 22.5824 23 22.5824C23.6904 22.5824 24.25 22.0228 24.25 21.3324C24.25 20.6421 23.6904 20.0824 23 20.0824C22.3096 20.0824 21.75 20.6421 21.75 21.3324Z" fill="#231F20"/>
</svg>
